<?xml version="1.0" encoding="UTF-8" standalone="no"?>
<!-- Created with Inkscape (http://www.inkscape.org/) -->

<svg
   version="1.1"
   id="svg62"
   width="756.73145"
   height="823.04126"
   viewBox="0 0 756.73141 823.04122"
   xmlns="http://www.w3.org/2000/svg"
   xmlns:svg="http://www.w3.org/2000/svg">
  <defs
     id="defs12" />
  <g
     id="g3577">
    <path
       style="display:inline;fill:#f3d426;stroke-width:1.33333"
       d="m 505.12095,542.47833 c 47.65343,-44.95381 119.42123,-53.36706 176.59893,-20.70246 11.57425,6.61216 27.76933,19.60184 28.37776,22.7611 0.44699,2.32106 -38.97336,41.36025 -44.75207,44.31933 -3.44018,1.76161 -4.23004,1.49621 -15.07805,-5.06647 -16.47255,-9.96533 -23.96487,-12.09492 -42.55231,-12.09492 -18.91005,0 -30.47428,3.34539 -44.88713,12.98528 -12.7513,8.5286 -20.46218,17.57385 -28.1443,33.01472 l -6.30191,12.66667 v 20 20 l 6.27432,13.05395 c 14.26493,29.67868 40.25902,46.43308 72.39235,46.66024 28.11926,0.19878 51.85059,-12.51826 67.31299,-36.07139 10.40415,-15.84813 11.70723,-14.97613 -22.37965,-14.97613 -20.82963,0 -29.52008,-0.45342 -30.66667,-1.6 -1.14444,-1.14444 -1.6,-9.69819 -1.6,-30.04185 0,-25.84125 0.21335,-28.52762 2.33333,-29.37988 1.28334,-0.5159 31.60497,-0.94708 67.38141,-0.95814 56.33662,-0.0175 65.232,0.2477 66.42147,1.97986 1.92705,2.80626 0.42728,48.90938 -1.97354,60.66667 -10.75719,52.68028 -49.22309,95.80679 -100.35021,112.50882 -17.88843,5.84375 -29.61747,7.29431 -52.13667,6.44792 -40.20038,-1.51093 -68.59521,-13.88949 -101.20762,-44.12084 -1.37456,-2.71485 -97.39755,-75.31397 4.93757,-212.05248 z"
       id="path3591" />
    <path
       style="display:inline;fill:#218dc9;stroke-width:1.33333"
       d="m 228.58699,777.20441 c -0.75164,0 -5.60556,2.1347 -10.7865,4.74378 -11.7945,5.93961 -33.63084,13.27188 -45.71701,15.35096 -13.61212,2.3416 -46.69329,0.90454 -59.90344,-2.6022 C 87.807764,788.22712 67.660644,777.57904 49.651944,761.64984 25.886614,740.62873 10.890284,715.76972 3.0048945,684.32429 0.56350445,674.58848 0.04093445,668.70998 0.00142445,650.53774 -0.04987555,626.93938 1.2587445,618.72719 8.1131745,599.63314 23.533254,556.6781 58.757934,522.8179 102.62026,508.78688 c 17.84771,-5.70925 25.6561,-6.8607 46.00001,-6.78332 39.55477,0.15047 69.99661,11.98504 101.07292,39.29316 7.45295,6.54923 13.92672,11.90769 14.38619,11.90769 22.40863,4.6941 11.38003,227.51902 -35.49239,224 z m -60.15507,-49.37076 c 28.15409,-7.80189 47.05425,-25.64237 57.06719,-53.86757 3.13728,-8.84356 4.34668,-22.62934 2.90067,-33.06398 -6.35983,-45.89331 -48.53546,-77.55836 -92.97001,-69.80097 -31.21445,5.44942 -57.041026,28.8459 -65.610006,59.43661 -2.54339,9.07973 -2.18836,31.12944 0.6548,40.66667 7.94714,26.65835 28.09818,47.67707 52.938796,55.21829 11.13188,3.37947 13.29941,3.71735 25.23371,3.93347 6.486,0.11747 13.47269,-0.77333 19.78485,-2.52252 z"
       id="path3589" />
    <path
       style="display:inline;fill:#e54110;stroke-width:1.33333"
       d="m 484.6421,546 c 19.55808,19.64503 31.33489,40.67132 38.36011,68.48807 3.37728,13.3726 3.8751,17.77617 3.86696,34.20625 -0.007,14.09458 -0.66343,21.552 -2.59891,29.52443 -5.93287,24.43801 -13.76079,41.62628 -27.28768,59.91736 C 458.93116,793.90114 438.30066,595.04372 484.6421,546 Z"
       id="path3587" />
    <path
       style="display:inline;fill:#dc2323;stroke-width:1.33333"
       d="m 230.65608,812.76244 c -0.52976,-5.65336 -0.6022,-15.77462 -0.16097,-22.49166 0.44123,-6.71705 0.48327,-12.53178 0.0935,-12.92164 -0.38986,-0.38985 -0.6492,-32.90125 -0.57635,-72.24755 0.14195,-76.64595 0.62789,-83.63135 7.14635,-102.72697 4.01406,-11.75912 10.16797,-24.02735 18.05806,-36 7.12609,-10.2273 11.70215,-14.15805 18.8874,-21.42182 38.69408,-39.40572 98.52697,-53.18 152.56402,-35.12215 22.58262,7.54656 43.83236,21.22014 59.42828,38.24034 4.37919,4.77911 7.96216,9.12001 7.96216,9.64645 0,0.52644 -1.84078,3.2735 -4.09064,6.10456 -11.83864,14.897 -21.15276,34.0544 -26.78134,55.08427 -1.59008,5.94092 -3.27634,10.80168 -3.74724,10.80168 -0.47092,0 -2.77094,-4.65 -5.11116,-10.33333 -12.93124,-31.40406 -41.71447,-50.91602 -75.20399,-50.9803 -14.24899,-0.0273 -22.43004,1.92694 -36.67415,8.7607 -14.02768,6.72993 -23.70586,15.2763 -32.22415,28.45576 -9.82516,15.20142 -11.25465,20.70316 -11.28439,43.4305 -0.0236,18.06969 0.2916,20.83842 3.26626,28.68678 11.7452,30.98859 43.469,53.26692 75.8508,53.26692 20.64949,0 43.07063,-9.45008 58.12546,-24.49876 7.41774,-7.41472 10.84742,-12.259 15.8941,-22.44972 3.53943,-7.14712 6.6218,-12.80829 6.84972,-12.58037 0.22792,0.22792 1.27802,4.9281 2.33355,10.44488 3.78424,19.77845 12.47652,40.90324 22.68287,55.12601 2.62953,3.66432 4.78097,7.84835 4.78097,9.29781 0,3.39675 -13.59147,16.33376 -25.84376,24.59933 -25.96889,17.51898 -52.67,25.80174 -83.48958,25.89869 -24.19494,0.0761 -41.34858,-3.85839 -67.00739,-15.36932 -6.42073,-2.88043 -12.27073,-4.86839 -13,-4.41768 -0.78592,0.48573 -1.32594,9.16012 -1.32594,21.29841 0,11.26342 -0.36419,21.428 -0.80932,22.58798 -0.70734,1.84314 -4.8957,2.10905 -33.21963,2.10905 h -32.41025 z"
       id="path3585" />
    <path
       style="display:inline;fill:#4e2271;stroke-width:1.33333"
       d="m 230.11577,702.35505 c 0.36888,-73.63746 0.96077,-81.92583 7.14572,-100.06082 6.0696,-17.79683 22.85473,-46.45211 26.5104,-45.25807 6.08516,1.98758 23.81161,35.04292 29.12935,54.31888 2.79766,10.14106 3.12669,14.1387 3.1276,38 9e-4,23.39511 -0.36123,27.9895 -2.95172,37.44907 -8.7045,31.78567 -27.99787,61.27116 -51.52727,78.74759 -4.29733,3.19184 -8.70577,5.80335 -9.79653,5.80335 -1.73428,0 -1.93982,-8.66054 -1.63755,-69 z"
       id="path3581" />
    <path
       style="display:inline;stroke-width:1.33333"
       d="m 280.53611,471.36708 c -2.68611,-2.1129 -3.51315,-3.94755 -3.51315,-7.79335 0,-5.34031 1.91982,-7.757 8.33334,-10.49015 l 3.66666,-1.56256 v -24.61965 c 0,-23.92975 0.0831,-24.6778 2.96335,-26.69526 1.83395,-1.28454 5.83701,-2.0756 10.5034,-2.0756 7.89703,0 9.49769,-0.95277 11.19992,-6.66666 1.81367,-6.08796 2.62675,-6.38539 12.32454,-4.50836 9.29873,1.7998 35.99322,2.43444 41.40669,0.98442 1.88244,-0.50421 2.90483,-1.65442 2.65044,-2.98178 -0.30939,-1.61434 -2.60229,-2.38028 -9.06457,-3.02802 -13.93774,-1.39704 -25.0109,-4.79024 -40.65043,-12.45668 -26.87358,-13.17332 -46.02856,-31.98747 -58.96727,-57.918 -6.62084,-13.26885 -7.81975,-14.89911 -10.24516,-13.93117 -0.79983,0.3192 -5.62192,6.9201 -10.71576,14.66868 -13.45785,20.47165 -25.95463,30.21967 -43.58951,34.00167 -9.20564,1.97426 -23.95317,0.7744 -33.14897,-2.697 -15.72584,-5.9365 -30.47599,-21.96994 -35.48911,-38.57675 -4.48505,-14.85751 -3.74903,-19.5251 18.01177,-114.22369 11.12186,-48.4 21.44112,-91.714263 22.93172,-96.253923 5.389,-16.41237 22.15,-36.113448 37.22176,-43.750886 9.05708,-4.589568 20.74757,-8.661862 24.86593,-8.661862 2.9528,0 3.1246,0.470678 3.1246,8.560727 v 8.560726 l -4.33334,0.906637 c -8.6326,1.806146 -20.98515,9.016478 -28.92771,16.885478 -13.61022,13.48415 -13.86654,14.27962 -36.92149,114.585613 -18.44811,80.26279 -20.59075,90.82858 -20.1102,99.1675 0.88949,15.43574 9.42992,28.15993 23.41092,34.87941 15.68793,7.53987 34.93219,4.04249 47.26632,-8.58997 2.77815,-2.84535 12.74471,-18.02448 22.14792,-33.7314 15.92415,-26.59934 17.57111,-28.84663 24.01276,-32.76563 4.10027,-2.49455 10.32723,-4.80164 15.29463,-5.66667 8.75821,-1.52518 120.82686,-2.14074 120.82686,-0.66368 0,0.43747 -2.46675,3.58747 -5.48167,7 -7.38592,8.35999 -12.678,17.75622 -15.92084,28.2679 -3.41117,11.05732 -3.36216,37.9367 0.0692,37.9367 1.35948,0 2.4647,-2.34857 3.45098,-7.33333 5.71584,-28.88839 20.62026,-45.86724 50.21569,-57.20485 4.64115,-1.77795 4.5684,-2.83359 -1.43291,-20.79515 l -4.90042,-14.66667 -24.66667,-0.66872 c -25.76271,-0.69843 -26.75068,-0.9102 -35.81015,-7.67588 -9.55664,-7.13697 -14.58016,-28.59843 -8.18985,-34.98873 2.56743,-2.56743 4.44444,-2.66667 50.43425,-2.66667 h 47.76758 l 2.79921,3 c 2.23264,2.39279 34.50559,55.44604 40.19256,66.07224 0.76326,1.42616 2.8967,7.80008 4.74096,14.16428 2.87174,9.90975 5.53546,14.86623 18.55083,34.51812 22.05214,33.29652 30.66251,40.1715 50.18128,40.0674 8.13236,-0.0433 11.29903,-0.7165 16.95543,-3.60422 9.21805,-4.70602 15.96904,-11.6694 20.13568,-20.76918 4.85869,-10.6112 5.10439,-18.25938 1.11737,-34.78197 -2.85429,-11.82845 -12.8763,-55.02798 -18.8688,-81.33334 -14.91063,-65.45325 -19.9978,-85.76197 -23.21227,-92.666673 -7.7418,-16.62939 -20.56917,-28.32383 -37.83529,-34.493626 l -8.29215,-2.96308 -0.39696,-8.271646 c -0.38125,-7.944478 -0.27085,-8.271646 2.79127,-8.271646 4.07932,0 15.76078,4.015701 24.36557,8.376079 14.3168,7.25487 27.86664,21.662069 35.41987,37.661039 2.39933,5.0822 7.25719,22.974963 13.21292,48.666673 5.1802,22.34626 13.96225,60.12955 19.51569,83.96288 13.99548,60.06351 13.66108,58.41953 13.69564,67.33334 0.16843,43.44395 -45.71106,71.95466 -85.18026,52.93323 -8.73578,-4.21003 -23.1031,-18.06532 -32.76771,-31.5999 -3.66556,-5.13333 -7.53596,-9.33333 -8.60088,-9.33333 -1.07914,0 -4.33874,4.72177 -7.36358,10.66667 -2.98504,5.86666 -7.48601,13.66666 -10.00217,17.33333 -7.196,10.48632 -23.65685,26.12923 -35.82243,34.04239 l -11.13301,7.24153 0.50887,8.69138 c 0.29225,4.99158 1.62593,10.96169 3.13302,14.0247 2.6156,5.31598 2.6538,5.33551 11.73283,6 12.97297,0.9495 12.89132,0.76216 12.89132,29.57768 v 23.73467 l 4.96956,2.34383 c 5.82848,2.74893 8.20535,7.80011 6.26568,13.31549 -2.49952,7.10736 -0.78852,6.98751 -100.05543,7.00868 -91.22522,0.0195 -92.18891,-0.008 -95.66667,-2.74378 z M 259.92204,192.37791 c -2.43497,-2.59192 -2.90234,-4.67306 -2.91949,-13 -0.0107,-5.45274 -0.53103,-10.7197 -1.15509,-11.70436 -0.75827,-1.19639 -4.77564,-1.93404 -12.1102,-2.22362 -12.82694,-0.50642 -17.38096,-3.29758 -17.38096,-10.65276 0,-7.30209 4.40406,-10 16.32402,-10 13.3743,0 14.34264,-0.98096 14.34264,-14.52948 0,-9.08329 0.3748,-10.69112 3.08594,-13.23811 4.0992,-3.851 10.29928,-3.76833 14.01498,0.18686 2.45252,2.6106 2.89908,4.6497 2.89908,13.23809 0,13.3743 0.98096,14.34264 14.52948,14.34264 9.0833,0 10.69112,0.3748 13.23811,3.08594 3.31365,3.52724 3.737,9.69553 0.92067,13.41473 -2.13539,2.81995 -10.0401,4.68841 -20.19942,4.7746 -8.02733,0.0681 -8.44173,0.80223 -8.47064,15.00612 -0.0152,7.47404 -0.4989,9.39591 -2.93628,11.66667 -3.97441,3.70273 -10.51844,3.53325 -14.18284,-0.36732 z m 249.57693,-6.23618 c -7.3722,-2.97505 -9.52171,-13.7534 -3.86993,-19.40516 4.77436,-4.77437 14.11756,-4.64932 17.96382,0.24042 2.69932,3.43162 3.59428,10.10362 1.9352,14.42712 -0.97982,2.55337 -7.36512,6.09522 -10.77221,5.97521 -1.31975,-0.0465 -3.68535,-0.6034 -5.25688,-1.23759 z M 470.3563,146.5222 c -5.00958,-1.83128 -7.99992,-6.19943 -7.9576,-11.62411 0.0465,-5.962 1.65172,-8.79199 6.43134,-11.33851 6.97738,-3.71749 17.52626,2.39187 17.52626,10.15029 0,8.81082 -8.44565,15.57386 -16,12.81233 z m 39.10499,-1.00204 c -4.96128,-2.15812 -7.10499,-5.59909 -7.10499,-11.40456 0,-5.31413 6.28796,-11.9851 11.29699,-11.9851 13.15236,0 17.97405,16.01143 6.86215,22.78722 -4.89178,2.98289 -5.50492,3.01632 -11.05415,0.60244 z M 269.03539,86.323387 c -2.74476,-1.47204 -5.87235,-4.84658 -7.72347,-8.33333 -2.94278,-5.54302 -3.08862,-7.00039 -2.69989,-26.978111 l 0.41093,-21.118555 3.74102,-3.214779 c 3.38498,-2.908828 4.94521,-3.21478 16.39394,-3.21478 11.56083,0 12.92778,0.274848 15.83728,3.184363 4.28552,4.285517 5.043,9.449596 4.49391,30.637069 -0.40753,15.725893 -0.81684,18.460423 -3.25541,21.749653 -6.98212,9.41771 -17.81518,12.3207 -27.19831,7.28847 z m 64.79304,-0.54815 c -9.30671,-5.33561 -10.1388,-8.53584 -10.1388,-38.993927 0,-29.276949 0.35903,-30.81915 7.90212,-33.943602 2.46504,-1.021051 8.09327,-1.474796 14.61795,-1.178495 9.00769,0.409061 11.12831,0.969076 14.04479,3.708966 l 3.43514,3.227157 -0.005,28.100916 c -0.004,25.688325 -0.23245,28.473995 -2.65448,32.446435 -5.75981,9.44685 -17.35949,12.27518 -27.20173,6.63255 z m 65.8404,0.55312 c -2.55522,-1.35785 -5.99586,-4.44658 -7.64586,-6.86385 -2.917,-4.27343 -3,-5.33195 -3,-38.258458 V 7.3426205 l 3.27273,-3.272728 c 1.8,-1.800001 4.65,-3.34345103 6.33333,-3.42989303 1.68334,-0.08644 5.1606,-0.306848 7.72727,-0.489796 9.34135,-0.665833 16.36059,0.89865103 19.57023,4.36190903 3.06944,3.311973 3.09644,3.634238 3.09644,36.9492405 0,32.661754 -0.0845,33.731884 -3,38.003154 -5.98059,8.76162 -17.25643,11.69837 -26.35414,6.86385 z m 64.0929,-0.41696 c -9.0942,-6.18204 -10.02573,-9.48777 -10.45847,-37.114231 -0.53254,-33.999153 1.29191,-37.27431 20.78592,-37.313678 10.3924,-0.02099 16.50287,2.104793 18.89427,6.573156 0.80808,1.509915 1.37285,13.351578 1.37285,28.784694 0,29.063719 -0.82968,32.850109 -8.37553,38.223239 -6.17263,4.39529 -16.42424,4.78601 -22.21904,0.84682 z"
       id="path3579" />
  </g>
</svg>
